<svg width="1200" height="630" xmlns="http://www.w3.org/2000/svg">
  <!-- Background -->
  <rect width="1200" height="630" fill="#f8fafc"/>
  
  <!-- Browser Window Frame -->
  <rect x="50" y="50" width="1100" height="530" rx="12" fill="white" stroke="#e2e8f0" stroke-width="2"/>
  
  <!-- Browser Top Bar -->
  <rect x="50" y="50" width="1100" height="40" rx="12" fill="#f1f5f9"/>
  <circle cx="80" cy="70" r="6" fill="#ef4444"/>
  <circle cx="105" cy="70" r="6" fill="#f59e0b"/>
  <circle cx="130" cy="70" r="6" fill="#10b981"/>
  
  <!-- URL Bar -->
  <rect x="160" y="60" width="400" height="20" rx="10" fill="white" stroke="#cbd5e1" stroke-width="1"/>
  <text x="170" y="75" font-family="system-ui, sans-serif" font-size="12" fill="#64748b">ecommerce-demo.vercel.app</text>
  
  <!-- Header -->
  <rect x="70" y="110" width="1060" height="60" fill="#6366f1" rx="8"/>
  <text x="90" y="145" font-family="system-ui, sans-serif" font-size="24" font-weight="bold" fill="white">ShopHub</text>
  <rect x="950" y="125" width="80" height="30" rx="6" fill="white" opacity="0.2"/>
  <rect x="1040" y="125" width="80" height="30" rx="6" fill="white" opacity="0.2"/>
  
  <!-- Product Grid -->
  <rect x="90" y="200" width="240" height="180" rx="8" fill="#f8fafc" stroke="#e2e8f0" stroke-width="2"/>
  <rect x="100" y="210" width="220" height="120" rx="6" fill="#e0e7ff"/>
  <rect x="100" y="340" width="150" height="15" rx="4" fill="#cbd5e1"/>
  <rect x="100" y="360" width="100" height="12" rx="4" fill="#94a3b8"/>
  
  <rect x="360" y="200" width="240" height="180" rx="8" fill="#f8fafc" stroke="#e2e8f0" stroke-width="2"/>
  <rect x="370" y="210" width="220" height="120" rx="6" fill="#ddd6fe"/>
  <rect x="370" y="340" width="150" height="15" rx="4" fill="#cbd5e1"/>
  <rect x="370" y="360" width="100" height="12" rx="4" fill="#94a3b8"/>
  
  <rect x="630" y="200" width="240" height="180" rx="8" fill="#f8fafc" stroke="#e2e8f0" stroke-width="2"/>
  <rect x="640" y="210" width="220" height="120" rx="6" fill="#fce7f3"/>
  <rect x="640" y="340" width="150" height="15" rx="4" fill="#cbd5e1"/>
  <rect x="640" y="360" width="100" height="12" rx="4" fill="#94a3b8"/>
  
  <rect x="900" y="200" width="240" height="180" rx="8" fill="#f8fafc" stroke="#e2e8f0" stroke-width="2"/>
  <rect x="910" y="210" width="220" height="120" rx="6" fill="#dbeafe"/>
  <rect x="910" y="340" width="150" height="15" rx="4" fill="#cbd5e1"/>
  <rect x="910" y="360" width="100" height="12" rx="4" fill="#94a3b8"/>
  
  <!-- Cart Icon -->
  <circle cx="1100" cy="140" r="8" fill="#ef4444"/>
  <text x="1096" y="144" font-family="system-ui, sans-serif" font-size="10" font-weight="bold" fill="white">3</text>
  
  <!-- Label -->
  <rect x="450" y="480" width="300" height="60" rx="30" fill="#6366f1"/>
  <text x="600" y="515" font-family="system-ui, sans-serif" font-size="22" font-weight="bold" fill="white" text-anchor="middle">E-Commerce Platform</text>
</svg>
