<svg width="800" height="600" viewBox="0 0 800 600" fill="none" xmlns="http://www.w3.org/2000/svg">
  <!-- Background -->
  <rect width="800" height="600" fill="#f8fafc"/>
  
  <!-- Header -->
  <rect width="800" height="80" fill="white"/>
  <rect x="0" y="80" width="800" height="1" fill="#e2e8f0"/>
  
  <!-- Logo and Title -->
  <circle cx="60" cy="40" r="16" fill="url(#logoGradient)"/>
  <text x="90" y="50" font-family="Inter, sans-serif" font-size="20" font-weight="700" fill="#1e293b">TaskFlow</text>
  
  <!-- Add Task Button -->
  <rect x="600" y="25" width="120" height="30" rx="6" fill="#4f46e5"/>
  <text x="640" y="45" font-family="Inter, sans-serif" font-size="14" font-weight="500" fill="white" text-anchor="middle">+ Add Task</text>
  
  <!-- Theme Toggle -->
  <circle cx="750" cy="40" r="14" fill="#f1f5f9"/>
  <circle cx="750" cy="40" r="8" fill="#64748b"/>
  
  <!-- User Avatar -->
  <circle cx="720" cy="40" r="16" fill="url(#avatarGradient)"/>
  
  <!-- Stats Cards -->
  <rect x="40" y="120" width="160" height="80" rx="8" fill="white" stroke="#e2e8f0"/>
  <text x="60" y="140" font-family="Inter, sans-serif" font-size="14" font-weight="500" fill="#64748b">To Do</text>
  <text x="60" y="180" font-family="Inter, sans-serif" font-size="28" font-weight="700" fill="#1e293b">5</text>
  <circle cx="170" cy="150" r="12" fill="#e0e7ff"/>
  <circle cx="170" cy="150" r="6" fill="#4f46e5"/>
  
  <rect x="220" y="120" width="160" height="80" rx="8" fill="white" stroke="#e2e8f0"/>
  <text x="240" y="140" font-family="Inter, sans-serif" font-size="14" font-weight="500" fill="#64748b">In Progress</text>
  <text x="240" y="180" font-family="Inter, sans-serif" font-size="28" font-weight="700" fill="#1e293b">3</text>
  <circle cx="350" cy="150" r="12" fill="#fef3c7"/>
  <circle cx="350" cy="150" r="6" fill="#f59e0b"/>
  
  <rect x="400" y="120" width="160" height="80" rx="8" fill="white" stroke="#e2e8f0"/>
  <text x="420" y="140" font-family="Inter, sans-serif" font-size="14" font-weight="500" fill="#64748b">Done</text>
  <text x="420" y="180" font-family="Inter, sans-serif" font-size="28" font-weight="700" fill="#1e293b">2</text>
  <circle cx="530" cy="150" r="12" fill="#dcfce7"/>
  <circle cx="530" cy="150" r="6" fill="#22c55e"/>
  
  <rect x="580" y="120" width="160" height="80" rx="8" fill="white" stroke="#e2e8f0"/>
  <text x="600" y="140" font-family="Inter, sans-serif" font-size="14" font-weight="500" fill="#64748b">Total</text>
  <text x="600" y="180" font-family="Inter, sans-serif" font-size="28" font-weight="700" fill="#1e293b">10</text>
  <circle cx="710" cy="150" r="12" fill="#f3f4f6"/>
  <circle cx="710" cy="150" r="6" fill="#6b7280"/>
  
  <!-- Kanban Board -->
  <!-- To Do Column -->
  <rect x="40" y="240" width="220" height="320" rx="8" fill="white" stroke="#e2e8f0"/>
  <rect x="50" y="250" width="200" height="40" rx="6" fill="#eff6ff"/>
  <circle cx="70" cy="270" r="8" fill="#3b82f6"/>
  <text x="90" y="275" font-family="Inter, sans-serif" font-size="16" font-weight="600" fill="#1e40af">To Do</text>
  <text x="200" y="275" font-family="Inter, sans-serif" font-size="12" font-weight="500" fill="#64748b" text-anchor="end">5</text>
  
  <!-- Task Cards in To Do -->
  <rect x="50" y="310" width="200" height="100" rx="6" fill="white" stroke="#e2e8f0"/>
  <text x="70" y="330" font-family="Inter, sans-serif" font-size="14" font-weight="600" fill="#1e293b">Design new landing page</text>
  <text x="70" y="350" font-family="Inter, sans-serif" font-size="12" fill="#64748b">Create a modern and responsive landing...</text>
  <rect x="70" y="360" width="40" height="16" rx="8" fill="#ef4444"/>
  <text x="90" y="372" font-family="Inter, sans-serif" font-size="10" font-weight="500" fill="white" text-anchor="middle">High</text>
  <circle cx="180" cy="370" r="8" fill="url(#avatarGradient)"/>
  <text x="200" y="375" font-family="Inter, sans-serif" font-size="10" fill="#64748b">Natan K.</text>
  <text x="70" y="395" font-family="Inter, sans-serif" font-size="10" fill="#64748b">Due: Feb 15</text>
  
  <rect x="50" y="420" width="200" height="100" rx="6" fill="white" stroke="#e2e8f0"/>
  <text x="70" y="440" font-family="Inter, sans-serif" font-size="14" font-weight="600" fill="#1e293b">Setup CI/CD pipeline</text>
  <text x="70" y="460" font-family="Inter, sans-serif" font-size="12" fill="#64748b">Configure automated testing and...</text>
  <rect x="70" y="470" width="40" height="16" rx="8" fill="#ef4444"/>
  <text x="90" y="482" font-family="Inter, sans-serif" font-size="10" font-weight="500" fill="white" text-anchor="middle">High</text>
  <circle cx="180" cy="480" r="8" fill="url(#avatarGradient)"/>
  <text x="200" y="485" font-family="Inter, sans-serif" font-size="10" fill="#64748b">Natan K.</text>
  <text x="70" y="505" font-family="Inter, sans-serif" font-size="10" fill="#64748b">Due: Feb 25</text>
  
  <!-- In Progress Column -->
  <rect x="290" y="240" width="220" height="320" rx="8" fill="white" stroke="#e2e8f0"/>
  <rect x="300" y="250" width="200" height="40" rx="6" fill="#fffbeb"/>
  <circle cx="320" cy="270" r="8" fill="#f59e0b"/>
  <text x="340" y="275" font-family="Inter, sans-serif" font-size="16" font-weight="600" fill="#92400e">In Progress</text>
  <text x="480" y="275" font-family="Inter, sans-serif" font-size="12" font-weight="500" fill="#64748b" text-anchor="end">3</text>
  
  <!-- Task Cards in In Progress -->
  <rect x="300" y="310" width="200" height="100" rx="6" fill="white" stroke="#e2e8f0"/>
  <text x="320" y="330" font-family="Inter, sans-serif" font-size="14" font-weight="600" fill="#1e293b">Implement user auth</text>
  <text x="320" y="350" font-family="Inter, sans-serif" font-size="12" fill="#64748b">Add login and registration functionality...</text>
  <rect x="320" y="360" width="40" height="16" rx="8" fill="#f59e0b"/>
  <text x="340" y="372" font-family="Inter, sans-serif" font-size="10" font-weight="500" fill="white" text-anchor="middle">Med</text>
  <circle cx="430" cy="370" r="8" fill="#fbbf24"/>
  <text x="450" y="375" font-family="Inter, sans-serif" font-size="10" fill="#64748b">Sarah J.</text>
  <text x="320" y="395" font-family="Inter, sans-serif" font-size="10" fill="#64748b">Due: Feb 20</text>
  
  <rect x="300" y="420" width="200" height="100" rx="6" fill="white" stroke="#e2e8f0"/>
  <text x="320" y="440" font-family="Inter, sans-serif" font-size="14" font-weight="600" fill="#1e293b">Optimize database</text>
  <text x="320" y="460" font-family="Inter, sans-serif" font-size="12" fill="#64748b">Review and optimize slow database...</text>
  <rect x="320" y="470" width="40" height="16" rx="8" fill="#f59e0b"/>
  <text x="340" y="482" font-family="Inter, sans-serif" font-size="10" font-weight="500" fill="white" text-anchor="middle">Med</text>
  <circle cx="430" cy="480" r="8" fill="#fbbf24"/>
  <text x="450" y="485" font-family="Inter, sans-serif" font-size="10" fill="#64748b">Sarah J.</text>
  <text x="320" y="505" font-family="Inter, sans-serif" font-size="10" fill="#64748b">Due: Feb 18</text>
  
  <!-- Done Column -->
  <rect x="540" y="240" width="220" height="320" rx="8" fill="white" stroke="#e2e8f0"/>
  <rect x="550" y="250" width="200" height="40" rx="6" fill="#f0fdf4"/>
  <circle cx="570" cy="270" r="8" fill="#22c55e"/>
  <text x="590" y="275" font-family="Inter, sans-serif" font-size="16" font-weight="600" fill="#15803d">Done</text>
  <text x="730" y="275" font-family="Inter, sans-serif" font-size="12" font-weight="500" fill="#64748b" text-anchor="end">2</text>
  
  <!-- Task Cards in Done -->
  <rect x="550" y="310" width="200" height="100" rx="6" fill="white" stroke="#e2e8f0"/>
  <text x="570" y="330" font-family="Inter, sans-serif" font-size="14" font-weight="600" fill="#1e293b">Write API docs</text>
  <text x="570" y="350" font-family="Inter, sans-serif" font-size="12" fill="#64748b">Create comprehensive API documentation...</text>
  <rect x="570" y="360" width="40" height="16" rx="8" fill="#10b981"/>
  <text x="590" y="372" font-family="Inter, sans-serif" font-size="10" font-weight="500" fill="white" text-anchor="middle">Low</text>
  <circle cx="680" cy="370" r="8" fill="#34d399"/>
  <text x="700" y="375" font-family="Inter, sans-serif" font-size="10" fill="#64748b">Mike C.</text>
  <text x="570" y="395" font-family="Inter, sans-serif" font-size="10" fill="#64748b">Completed</text>
  
  <!-- Gradients -->
  <defs>
    <linearGradient id="logoGradient" x1="0%" y1="0%" x2="100%" y2="100%">
      <stop offset="0%" style="stop-color:#4f46e5;stop-opacity:1" />
      <stop offset="100%" style="stop-color:#7c3aed;stop-opacity:1" />
    </linearGradient>
    <linearGradient id="avatarGradient" x1="0%" y1="0%" x2="100%" y2="100%">
      <stop offset="0%" style="stop-color:#3b82f6;stop-opacity:1" />
      <stop offset="100%" style="stop-color:#1d4ed8;stop-opacity:1" />
    </linearGradient>
  </defs>
</svg>
