<svg viewBox="0 0 1200 800" xmlns="http://www.w3.org/2000/svg">
  <!-- Background -->
  <rect width="1200" height="800" fill="url(#gradient)" />
  
  <!-- Gradient Definition -->
  <defs>
    <linearGradient id="gradient" x1="0%" y1="0%" x2="100%" y2="100%">
      <stop offset="0%" style="stop-color:#dbeafe;stop-opacity:1" />
      <stop offset="50%" style="stop-color:#ffffff;stop-opacity:1" />
      <stop offset="100%" style="stop-color:#f3e8ff;stop-opacity:1" />
    </linearGradient>
    
    <linearGradient id="cardGradient" x1="0%" y1="0%" x2="100%" y2="100%">
      <stop offset="0%" style="stop-color:#ffffff;stop-opacity:0.9" />
      <stop offset="100%" style="stop-color:#f8fafc;stop-opacity:0.9" />
    </linearGradient>
    
    <linearGradient id="blueGradient" x1="0%" y1="0%" x2="100%" y2="0%">
      <stop offset="0%" style="stop-color:#3b82f6;stop-opacity:1" />
      <stop offset="100%" style="stop-color:#8b5cf6;stop-opacity:1" />
    </linearGradient>
  </defs>
  
  <!-- Header -->
  <rect x="0" y="0" width="1200" height="80" fill="rgba(255,255,255,0.5)" stroke="#e5e7eb" stroke-width="1"/>
  
  <!-- Header Title -->
  <text x="60" y="50" font-family="system-ui, -apple-system, sans-serif" font-size="28" font-weight="bold" fill="#1f2937">
    <tspan fill="url(#blueGradient)">Weather</tspan> Dashboard
  </text>
  
  <!-- Language/Theme Switchers -->
  <rect x="900" y="25" width="120" height="30" rx="15" fill="#ffffff" stroke="#e5e7eb"/>
  <text x="920" y="44" font-family="system-ui" font-size="14" fill="#6b7280">ES</text>
  <rect x="950" y="30" width="60" height="20" rx="10" fill="#3b82f6"/>
  <text x="970" y="43" font-family="system-ui" font-size="12" fill="#ffffff">EN</text>
  
  <rect x="1040" y="25" width="40" height="30" rx="8" fill="#f3f4f6"/>
  <circle cx="1060" cy="40" r="8" fill="#f59e0b"/>
  
  <!-- Search Bar -->
  <rect x="400" y="140" width="400" height="60" rx="30" fill="#ffffff" stroke="#e5e7eb" stroke-width="2"/>
  <text x="430" y="175" font-family="system-ui" font-size="16" fill="#9ca3af">Search for a city...</text>
  <rect x="700" y="150" width="80" height="40" rx="20" fill="#3b82f6"/>
  <text x="730" y="175" font-family="system-ui" font-size="14" fill="#ffffff">Search</text>
  
  <!-- Main Weather Card -->
  <rect x="300" y="250" width="600" height="200" rx="20" fill="url(#cardGradient)" stroke="#e5e7eb" stroke-width="1"/>
  
  <!-- Weather Icon -->
  <circle cx="400" cy="350" r="60" fill="#fbbf24"/>
  <circle cx="400" cy="340" r="8" fill="#ffffff"/>
  <circle cx="380" cy="320" r="6" fill="#ffffff"/>
  <circle cx="420" cy="320" r="6" fill="#ffffff"/>
  <circle cx="400" cy="300" r="4" fill="#ffffff"/>
  
  <!-- Temperature -->
  <text x="500" y="320" font-family="system-ui" font-size="48" font-weight="bold" fill="#1f2937" text-anchor="middle">23°C</text>
  <text x="500" y="350" font-family="system-ui" font-size="18" fill="#6b7280" text-anchor="middle">Madrid, Spain</text>
  <text x="500" y="380" font-family="system-ui" font-size="16" fill="#6b7280" text-anchor="middle">Clear sky</text>
  <text x="500" y="405" font-family="system-ui" font-size="14" fill="#9ca3af" text-anchor="middle">Feels like 25°C</text>
  
  <!-- Weather Stats -->
  <rect x="380" y="480" width="120" height="80" rx="12" fill="#ffffff" stroke="#e5e7eb"/>
  <text x="440" y="505" font-family="system-ui" font-size="12" fill="#6b7280" text-anchor="middle">Humidity</text>
  <text x="440" y="530" font-family="system-ui" font-size="20" font-weight="bold" fill="#1f2937" text-anchor="middle">65%</text>
  
  <rect x="520" y="480" width="120" height="80" rx="12" fill="#ffffff" stroke="#e5e7eb"/>
  <text x="580" y="505" font-family="system-ui" font-size="12" fill="#6b7280" text-anchor="middle">Wind</text>
  <text x="580" y="530" font-family="system-ui" font-size="20" font-weight="bold" fill="#1f2937" text-anchor="middle">12 km/h</text>
  
  <rect x="660" y="480" width="120" height="80" rx="12" fill="#ffffff" stroke="#e5e7eb"/>
  <text x="720" y="505" font-family="system-ui" font-size="12" fill="#6b7280" text-anchor="middle">Pressure</text>
  <text x="720" y="530" font-family="system-ui" font-size="20" font-weight="bold" fill="#1f2937" text-anchor="middle">1013 hPa</text>
  
  <!-- 5-Day Forecast -->
  <text x="60" y="620" font-family="system-ui" font-size="24" font-weight="bold" fill="#1f2937">5-Day Forecast</text>
  
  <!-- Forecast Cards -->
  <rect x="60" y="640" width="100" height="120" rx="12" fill="#ffffff" stroke="#e5e7eb"/>
  <text x="95" y="665" font-family="system-ui" font-size="12" fill="#6b7280">Today</text>
  <circle cx="110" cy="690" r="15" fill="#fbbf24"/>
  <text x="100" y="720" font-family="system-ui" font-size="14" font-weight="bold" fill="#1f2937">23°</text>
  <text x="90" y="740" font-family="system-ui" font-size="12" fill="#6b7280">18°</text>
  
  <rect x="180" y="640" width="100" height="120" rx="12" fill="#ffffff" stroke="#e5e7eb"/>
  <text x="210" y="665" font-family="system-ui" font-size="12" fill="#6b7280">Tomorrow</text>
  <circle cx="230" cy="690" r="15" fill="#60a5fa"/>
  <text x="220" y="720" font-family="system-ui" font-size="14" font-weight="bold" fill="#1f2937">21°</text>
  <text x="210" y="740" font-family="system-ui" font-size="12" fill="#6b7280">16°</text>
  
  <rect x="300" y="640" width="100" height="120" rx="12" fill="#ffffff" stroke="#e5e7eb"/>
  <text x="335" y="665" font-family="system-ui" font-size="12" fill="#6b7280">Wed</text>
  <circle cx="350" cy="690" r="15" fill="#fbbf24"/>
  <text x="340" y="720" font-family="system-ui" font-size="14" font-weight="bold" fill="#1f2937">25°</text>
  <text x="330" y="740" font-family="system-ui" font-size="12" fill="#6b7280">19°</text>
  
  <rect x="420" y="640" width="100" height="120" rx="12" fill="#ffffff" stroke="#e5e7eb"/>
  <text x="455" y="665" font-family="system-ui" font-size="12" fill="#6b7280">Thu</text>
  <circle cx="470" cy="690" r="15" fill="#34d399"/>
  <text x="460" y="720" font-family="system-ui" font-size="14" font-weight="bold" fill="#1f2937">27°</text>
  <text x="450" y="740" font-family="system-ui" font-size="12" fill="#6b7280">21°</text>
  
  <rect x="540" y="640" width="100" height="120" rx="12" fill="#ffffff" stroke="#e5e7eb"/>
  <text x="575" y="665" font-family="system-ui" font-size="12" fill="#6b7280">Fri</text>
  <circle cx="590" cy="690" r="15" fill="#fbbf24"/>
  <text x="580" y="720" font-family="system-ui" font-size="14" font-weight="bold" fill="#1f2937">24°</text>
  <text x="570" y="740" font-family="system-ui" font-size="12" fill="#6b7280">18°</text>
  
  <!-- Footer -->
  <text x="600" y="780" font-family="system-ui" font-size="12" fill="#9ca3af">Weather data provided by OpenWeather</text>
</svg>
